<?xml version="1.0" standalone="no"?>
<!DOCTYPE svg PUBLIC "-//W3C//DTD SVG 20010904//EN"
 "http://www.w3.org/TR/2001/REC-SVG-20010904/DTD/svg10.dtd">
<svg version="1.0" xmlns="http://www.w3.org/2000/svg"
 width="179.000000pt" height="179.000000pt" viewBox="0 0 179.000000 179.000000"
 preserveAspectRatio="xMidYMid meet">
<metadata>
Created by potrace 1.14, written by Peter Selinger 2001-2017
</metadata>
<g transform="translate(0.000000,179.000000) scale(0.100000,-0.100000)"
fill="#000000" stroke="none">
<path d="M738 1590 c-390 -96 -631 -498 -533 -887 21 -79 85 -206 139 -275 93
-117 242 -210 399 -250 112 -28 278 -22 390 15 180 59 338 193 421 359 63 126
80 198 79 333 0 130 -18 207 -74 320 -94 192 -266 332 -477 386 -98 25 -240
24 -344 -1z m224 -169 c25 -16 65 -40 89 -54 24 -13 61 -34 82 -46 20 -11 54
-31 75 -42 20 -12 51 -30 67 -40 17 -10 51 -30 78 -44 l47 -25 0 -115 c0 -63
-2 -115 -5 -115 -6 0 -63 32 -114 64 -22 15 -42 26 -45 26 -2 0 -69 38 -149
85 -80 46 -157 86 -172 89 -34 6 -65 -24 -65 -62 0 -32 16 -49 73 -81 86 -49
116 -66 195 -112 45 -27 84 -49 87 -49 2 0 39 -22 82 -48 43 -26 86 -51 96
-55 13 -5 17 -18 17 -61 0 -62 -2 -63 -73 -19 -21 13 -54 33 -73 44 -78 44
-84 48 -399 229 -126 73 -250 144 -275 158 -71 40 -80 46 -80 57 0 8 394 243
411 244 3 1 26 -12 51 -28z m-397 -411 c17 -10 59 -34 95 -55 36 -21 83 -48
105 -60 22 -13 108 -62 190 -110 161 -94 209 -122 240 -139 84 -48 135 -78
135 -81 0 -2 -94 -58 -209 -124 l-210 -121 -49 29 c-48 28 -129 74 -167 95
-11 6 -77 45 -148 86 l-127 74 0 103 0 104 43 -24 c23 -13 58 -33 77 -45 235
-137 356 -202 374 -202 31 0 54 20 60 52 6 33 -14 58 -66 87 -42 23 -49 27
-228 131 -128 74 -172 100 -225 130 -28 16 -30 21 -33 85 l-3 67 58 -32 c32
-18 72 -41 88 -50z"/>
</g>
</svg>
